<svg xmlns="http://www.w3.org/2000/svg" xmlns:xlink="http://www.w3.org/1999/xlink" width="500" zoomAndPan="magnify" viewBox="0 0 375 374.999991" height="500" preserveAspectRatio="xMidYMid meet" version="1.0"><defs><g/></defs><rect x="-37.5" width="450" fill="#ffffff" y="-37.499999" height="449.999989" fill-opacity="1"/><rect x="-37.5" width="450" fill="#ffffff" y="-37.499999" height="449.999989" fill-opacity="1"/><rect x="-37.5" width="450" fill="#ffffff" y="-37.499999" height="449.999989" fill-opacity="1"/><g fill="#000000" fill-opacity="1"><g transform="translate(43.117337, 253.499983)"><g><path d="M 19.769531 0.570312 L 23.574219 0 L 30.988281 0.378906 L 35.171875 -0.191406 L 41.253906 0.191406 L 46.578125 -2.089844 L 48.859375 -5.511719 L 48.289062 -25.476562 L 48.859375 -31.367188 L 48.667969 -35.359375 L 49.046875 -42.203125 L 48.667969 -46.386719 L 48.667969 -53.800781 L 50.378906 -55.511719 L 52.28125 -54.75 L 55.320312 -52.28125 L 57.601562 -49.429688 L 65.398438 -41.632812 L 67.871094 -38.59375 L 73.003906 -33.648438 L 76.996094 -30.796875 L 81.175781 -30.609375 L 84.980469 -33.460938 L 87.640625 -36.3125 L 89.921875 -38.59375 L 95.246094 -44.867188 L 97.90625 -46.765625 L 105.699219 -54.75 L 108.171875 -55.890625 L 109.695312 -53.039062 L 109.3125 -42.585938 L 109.882812 -34.980469 L 109.503906 -27.566406 L 109.882812 -20.53125 L 109.503906 -17.109375 L 109.882812 -8.554688 L 109.882812 -5.703125 L 111.40625 -1.332031 L 115.398438 -0.191406 L 138.398438 0.570312 L 142.390625 -1.519531 L 144.671875 -7.035156 L 144.101562 -16.917969 L 144.484375 -20.722656 L 144.101562 -77.753906 L 144.484375 -81.9375 L 144.292969 -100.757812 L 144.484375 -104.371094 L 144.101562 -112.546875 L 144.292969 -115.777344 L 144.101562 -123.570312 L 144.484375 -127.183594 L 142.203125 -131.175781 L 138.210938 -133.265625 L 132.695312 -131.554688 L 128.703125 -129.085938 L 120.71875 -120.71875 L 118.25 -117.679688 L 115.96875 -115.585938 L 113.304688 -112.164062 L 96.574219 -95.054688 L 94.105469 -91.824219 L 82.507812 -80.035156 L 79.085938 -77.753906 L 75.09375 -79.277344 L 72.8125 -82.507812 L 70.152344 -85.167969 L 66.730469 -89.542969 L 62.546875 -93.34375 L 45.246094 -112.546875 L 42.585938 -114.828125 L 37.640625 -120.71875 L 34.601562 -123.382812 L 29.65625 -128.515625 L 25.285156 -131.746094 L 19.960938 -133.265625 L 15.777344 -131.367188 L 13.6875 -127.375 L 14.257812 -115.777344 L 13.6875 -108.363281 L 14.066406 -104.941406 L 13.878906 -74.523438 L 14.257812 -70.722656 L 13.6875 -51.519531 L 14.066406 -47.90625 L 13.878906 -5.894531 L 15.96875 -1.902344 Z M 19.769531 0.570312 "/></g></g></g><g fill="#000000" fill-opacity="1"><g transform="translate(181.817995, 253.503382)"><g><path d="M 58.519531 0.570312 L 64.21875 0.570312 L 70.109375 -0.191406 L 73.910156 -0.191406 L 79.417969 -1.898438 L 87.207031 -3.230469 L 96.140625 -7.03125 L 108.867188 -15.578125 L 118.179688 -27.550781 L 120.078125 -31.347656 L 122.359375 -34.390625 L 125.398438 -41.800781 L 126.347656 -45.410156 L 127.109375 -49.398438 L 128.25 -52.628906 L 128.816406 -56.429688 L 128.816406 -60.417969 L 129.386719 -66.5 L 129.199219 -72.007812 L 126.539062 -87.019531 L 124.070312 -94.238281 L 122.546875 -97.847656 L 116.089844 -107.917969 L 106.019531 -119.128906 L 96.328125 -125.589844 L 92.71875 -127.679688 L 88.917969 -128.4375 L 85.6875 -129.957031 L 81.699219 -130.910156 L 70.488281 -132.617188 L 27.167969 -133 L 23.75 -132.429688 L 19.949219 -132.617188 L 15.769531 -130.910156 L 14.058594 -126.917969 L 13.871094 -20.710938 L 14.25 -17.101562 L 14.25 -7.410156 L 16.148438 -1.519531 L 19.949219 0.378906 L 23.75 0 L 46.929688 0.378906 L 50.730469 -0.191406 Z M 57.949219 -30.589844 L 54.339844 -30.96875 L 49.96875 -33.058594 L 48.449219 -36.667969 L 48.257812 -39.898438 L 48.449219 -47.6875 L 47.6875 -57 L 48.449219 -66.5 L 48.070312 -92.71875 L 48.449219 -95.949219 L 50.347656 -100.320312 L 56.429688 -101.648438 L 64.410156 -101.839844 L 69.917969 -101.269531 L 77.328125 -99.179688 L 80.75 -97.46875 L 83.597656 -95.378906 L 86.449219 -92.71875 L 89.296875 -89.296875 L 91.199219 -86.070312 L 92.910156 -82.648438 L 95.949219 -65.929688 L 94.046875 -52.628906 L 90.820312 -45.597656 L 83.789062 -37.621094 L 77.328125 -33.441406 L 71.820312 -31.730469 L 63.648438 -30.78125 Z M 57.949219 -30.589844 "/></g></g></g></svg>